# xmcd
#
# Track frame offsets:
#	150
#	17550
#	36825
#	54750
#	74250
#	93825
#	111900
#	135075
#	153000
#	173700
#	192375
#	220425
#	238650
#	260175
#
# Disc length: 3687 seconds
# Revision: 0
# Processed by: cddbd v1.5.2PL0 Copyright (c) Steve Scherf et al.
# Submitted via: dBpowerAMP V12.0
#
DISCID=b70e650e
DTITLE=Lee Miles Stone - Songs From Planet Love
DYEAR=1900
DGENRE=Blues
TTITLE0=Don't Blame me
TTITLE1=All The Things You Are
TTITLE2=Once in a While
TTITLE3=Now is The Time
TTITLE4=Someone to Watch Over me
TTITLE5=Bewitched
TTITLE6=But Beautiful
TTITLE7=That Ol' Feelin'
TTITLE8=Fools Rush in
TTITLE9=What is Love
TTITLE10=I'm Through With Love
TTITLE11=I Only Have Eyes For You
TTITLE12=There Goes my Heart
TTITLE13=Pennies From Heaven
EXTD=
EXTT0=
EXTT1=
EXTT2=
EXTT3=
EXTT4=
EXTT5=
EXTT6=
EXTT7=
EXTT8=
EXTT9=
EXTT10=
EXTT11=
EXTT12=
EXTT13=
PLAYORDER=
